<svg width="1163" height="785" viewBox="0 0 1163 785" fill="none" xmlns="http://www.w3.org/2000/svg">
<path opacity="0.1" d="M174.802 115.432C169.322 122.082 167.212 131.432 164.852 140.222C145.852 211.062 99.0321 268.042 45.7121 308.742C23.1321 325.982 -4.35794 349.102 0.582065 380.012C3.24206 396.612 14.9121 408.832 23.5821 422.352C41.7721 450.662 47.6721 489.142 39.0021 523.032C29.1421 561.592 1.58206 597.572 10.1121 636.562C15.3721 660.562 33.2321 677.642 50.4021 692.322C77.1887 715.209 104.829 736.649 133.322 756.642C152.422 770.042 172.742 783.082 195.002 784.782C214.602 786.282 233.802 778.832 252.412 771.482C268.672 765.052 285.342 758.362 298.472 745.482C307.042 737.072 313.872 726.222 323.392 719.342C345.752 703.182 374.472 713.422 400.112 720.342C460.612 736.582 525.362 730.652 582.932 703.602C671.242 662.102 738.552 574.952 824.932 528.192C862.072 508.082 902.472 495.602 936.862 469.702C956.237 454.956 972.887 436.938 986.062 416.462C1012.06 376.352 1026.12 325.212 1022.06 275.152C1018 225.092 995.252 176.852 959.522 148.592C921.272 118.342 872.962 112.692 829.442 94.5322C784.502 75.7722 744.522 43.5322 700.012 23.4022C663.996 7.15881 624.8 -0.814994 585.3 0.0657808C545.8 0.946555 506.998 10.6596 471.742 28.4922C423.302 52.9922 374.202 110.152 320.252 114.492C281.812 117.492 204.822 79.0122 174.802 115.432Z" fill="#6C63FF"/>
<path d="M268.2 365.7C257.6 365.7 249 374.3 249 384.9C249 395.4 257.6 404 268.1 404H268.2C273.3 404 278.1 402 281.7 398.4C285.3 394.8 287.3 390 287.3 384.8C287.4 374.3 278.8 365.7 268.2 365.7Z" fill="#00A1B0"/>
<path d="M285.5 420.5L252 410V541H285.5V420.5Z" fill="#845757"/>
<path d="M226 334V541H198L168.14 489.5H140.998L115.5 541H83.5L87.5 334H115.5L146.133 439H162.127L198 334H226Z" fill="#845757"/>
<path d="M153.5 464.25L115.5 334H87.5L83.5 541H115.5L153.5 464.25ZM153.5 464.25L198 541H226V334H198L153.5 464.25ZM252 410L285.5 420.5V541H252V410ZM180.5 439H138.213L139 489.5H180.5V439Z" stroke="#DAD9E8"/>
<path d="M315.5 338V542.5V559H342.5V432L411.5 551.5H490V338H461L454 524.5H427L342.5 338H315.5Z" fill="#7A7FEC" stroke="#DAD9E8"/>
<path d="M536 547.5V345.5L537 358L550.5 365L559.5 375L566 405C566 407.333 566.4 413 568 417C569.6 421 568.667 428 568 431L566 451.5C560.833 474.167 552 519.1 558 517.5C565.5 515.5 572.5 515.5 577.5 514C582.5 512.5 587.5 504.5 592 500.5C596.5 496.5 604 497 620 483C627.5 475.5 625.5 479 630.5 471C635.5 463 635 462.5 639 451.5C643 440.5 639 441.5 639 438V417C639 410.5 636.5 408 635 405C633.5 402 630.5 393 630.5 384C630.5 375 620 377.5 612.5 375C605 372.5 606.5 370.5 598.5 370.5C590.5 370.5 577.5 365 572.5 365C568.5 365 560.667 360 558 358H543.5L542 340.5L550.5 329.5C559.5 330 577.378 329.5 582.5 329.5C587.5 329.5 590.5 330.833 592 329.5C596.833 330.833 607.7 334 612.5 336C618.5 338.5 635.5 345.5 639 345.5C642.5 345.5 650 350.5 664.5 365C679 379.5 673.5 373.5 678 384C682.5 394.5 678 396.5 678 405V428C678 438 678.5 451 678 462.5C677.5 474 675 474 668 483C661 492 659.5 496 650 509C640.5 522 643 517 630.5 525.5C618 534 617.5 531 612.5 533.5C607.5 536 582.5 542 577.5 543.5C573.5 544.7 563.833 546.667 559.5 547.5H536Z" fill="#F0065B" stroke="#DAD9E8"/>
<path d="M697.5 524.5C691.9 536.9 689.167 539.333 688.5 539C688.5 541 692.8 546.6 710 553C727.5 553 725 548.5 732.5 539C740 529.5 741.5 519.5 743 503.5C744.5 487.5 744.5 477 745.5 442.5C746.5 408 748.5 417 755 392.5C761.5 368 767.5 392.5 786.5 392.5C805.5 392.5 801.5 394 806 405C810.5 416 809 417 817 431.5C825 446 817 458 821 485C825 512 823 500 829 524.5C835 549 836.5 539 841.5 553C846.5 567 856.5 553.5 861 539C865.5 524.5 860.5 524.5 856.5 494.5C852.5 464.5 853.5 467 848.5 442.5C843.5 418 844 417 836.5 386.5C829 356 827.5 358 817 332.5C806.5 307 808 323 773 323C738 323 749 325 725 332.5C701 340 719 345.5 719 365V417C719 442.5 716 434.5 710 462.5C704 490.5 707.5 484.5 706.5 500C705.5 515.5 704.5 509 697.5 524.5Z" fill="#FF5A5A" stroke="#DAD9E8"/>
<path d="M767.5 483.5L726 479C723.667 479 719 478 719 474C719 469 719 464 759.5 453.5H796C811 453.5 812 455 823 458C834 461 838.5 462.5 844.5 464C850.5 465.5 844.5 471.5 844.5 479C844.5 486.5 835.5 483.5 829.5 487.5C823.5 491.5 805 483.5 796 487.5C788.8 490.7 774 486.167 767.5 483.5Z" fill="#B30000" fill-opacity="0.62" stroke="#DAD9E8"/>
<path d="M890.5 343.5V352.5C892.5 353.833 897.1 358.4 899.5 366C902.5 375.5 901.5 372.5 905.5 391C909.5 409.5 908.5 399.5 918 420.5C927.5 441.5 922 428 929 436.5C934.353 443.001 940.895 460.224 941.024 461C943.029 461.013 946.75 462.648 959.5 449.5C961.5 442.5 959.5 420.5 959.5 372.5V359.5C959.5 352 963.5 343.5 963.5 329C963.5 314.5 970.5 323 970.5 318.5C970.5 314.9 974.167 314 976 314C979.833 315.5 989 329.3 995 372.5C1002.5 426.5 995 399.5 995 420.5C995 441.5 1003.5 449 1011.5 449.5C1017.9 449.9 1018.83 429.833 1018.5 428V416C1018.5 408.5 1018.5 399.5 1022 391C1025.5 382.5 1023.5 380.5 1028 359.5C1032.5 338.5 1031 343.5 1031 333C1031 322.5 1039 310.5 1051.5 314C1064 317.5 1056 318.5 1062.5 329C1069 339.5 1062.5 343.5 1062.5 356.5C1062.5 369.5 1062.5 383.5 1066 407.5C1069.5 431.5 1066 428 1066 442.5C1066 457 1066 458 1062.5 489.5C1059 521 1069.5 536.5 1055 549C1040.5 561.5 1038 538 1018.5 520.5C1015.5 512 1006 523.5 1002.5 505.5C999 487.5 986.381 494.436 981.5 505.5C974 522.5 981.5 505 979 513.5C976.5 522 981.5 541 979 551.5C976.5 562 973.137 562.32 968 565.5C947 578.5 948.5 567.333 947 565.5H941C936.5 565.5 938.8 551.1 936 549C918.775 536.081 922.002 523.467 918.514 520.799C918.356 520.713 918.185 520.613 918 520.5C918.187 520.579 918.357 520.679 918.514 520.799C926.041 524.913 903.044 498.522 867 428C855.706 404.423 850.112 393.084 847.731 388.614C847.661 389.148 847.645 389.713 847.699 390.341C850.093 396.345 854.283 406.066 851 399.5C848.778 395.055 847.872 392.366 847.699 390.341C846.167 386.502 845.37 384.183 847.731 388.614C848.194 385.066 851 382.899 851 372.5C851 355.5 846 359.5 845.5 333C845 306.5 846 323 851 323C856 323 858 319.5 863 318.5C868 317.5 868.5 319.5 876.5 323C884.5 326.5 883.5 329 886 333C888.5 337 890.5 339.5 890.5 343.5Z" fill="#21FF0D"/>
<path d="M890.5 352.5C890.5 350.833 890.5 346.7 890.5 343.5C890.5 339.5 888.5 337 886 333C883.5 329 884.5 326.5 876.5 323C868.5 319.5 868 317.5 863 318.5C858 319.5 856 323 851 323C846 323 845 306.5 845.5 333C846 359.5 851 355.5 851 372.5C851 389.5 843.5 384.5 851 399.5C858.5 414.5 827 344.5 867 428C903.8 500 927 526 918 520.5C922.333 522.333 918 535.5 936 549C938.8 551.1 936.5 565.5 941 565.5C944.6 565.5 943 565.5 947 565.5C948.5 567.333 947 578.5 968 565.5C973.137 562.32 976.5 562 979 551.5C981.5 541 976.5 522 979 513.5C981.5 505 974 522.5 981.5 505.5C986.381 494.436 999 487.5 1002.5 505.5C1006 523.5 1015.5 512 1018.5 520.5C1038 538 1040.5 561.5 1055 549C1069.5 536.5 1059 521 1062.5 489.5C1066 458 1066 457 1066 442.5C1066 428 1069.5 431.5 1066 407.5C1062.5 383.5 1062.5 369.5 1062.5 356.5C1062.5 343.5 1069 339.5 1062.5 329C1056 318.5 1064 317.5 1051.5 314C1039 310.5 1031 322.5 1031 333C1031 343.5 1032.5 338.5 1028 359.5C1023.5 380.5 1025.5 382.5 1022 391C1018.5 399.5 1018.5 408.5 1018.5 416C1018.5 422 1018.5 426.5 1018.5 428C1018.83 429.833 1017.9 449.9 1011.5 449.5C1003.5 449 995 441.5 995 420.5C995 399.5 1002.5 426.5 995 372.5C989 329.3 979.833 315.5 976 314C974.167 314 970.5 314.9 970.5 318.5C970.5 323 963.5 314.5 963.5 329C963.5 343.5 959.5 352 959.5 359.5C959.5 367 959.5 337.5 959.5 372.5C959.5 420.5 961.5 442.5 959.5 449.5C946.7 462.7 943 461 941 461C941.5 461.833 934.6 443.3 929 436.5C922 428 927.5 441.5 918 420.5C908.5 399.5 909.5 409.5 905.5 391C901.5 372.5 902.5 375.5 899.5 366C897.1 358.4 892.5 353.833 890.5 352.5Z" stroke="#DAD9E8"/>
<path d="M1083.5 504V537V542.133V545V562.5C1083.5 575.5 1083.5 569 1087 590.5C1090.5 612 1093.5 596.5 1104 599C1114.5 601.5 1110 599 1124.5 592C1139 585 1133.5 585.5 1151.5 573C1169.5 560.5 1156 562.5 1160.5 545C1165 527.5 1160.5 532 1160.5 517C1160.5 502 1164 500.5 1160.5 480C1157 459.5 1160.5 464.5 1160.5 454.5V417V394.5V382C1160.5 378 1159.5 373 1156 352C1152.5 331 1157.5 341.5 1156 333.5C1154.5 325.5 1142 321 1133.5 315C1125 309 1121 315 1110 315H1104C1099.67 317.5 1089.5 332.8 1083.5 374V408V441V475V504Z" fill="#00A1B0"/>
<path d="M1083.5 545C1083.5 547.232 1083.5 549.09 1083.5 542.133M1083.5 542.133C1083.5 540.778 1083.5 539.087 1083.5 537C1083.5 521 1083.5 514 1083.5 504C1083.5 494 1083.5 492 1083.5 475C1083.5 458 1083.5 458.5 1083.5 441C1083.5 423.5 1083.5 430.5 1083.5 408C1083.5 385.5 1083.5 411 1083.5 374C1089.5 332.8 1099.67 317.5 1104 315C1102.33 315 1101.2 315 1110 315C1121 315 1125 309 1133.5 315C1142 321 1154.5 325.5 1156 333.5C1157.5 341.5 1152.5 331 1156 352C1159.5 373 1160.5 378 1160.5 382C1160.5 386 1160.5 386 1160.5 394.5C1160.5 403 1160.5 397.5 1160.5 417C1160.5 436.5 1160.5 444.5 1160.5 454.5C1160.5 464.5 1157 459.5 1160.5 480C1164 500.5 1160.5 502 1160.5 517C1160.5 532 1165 527.5 1160.5 545C1156 562.5 1169.5 560.5 1151.5 573C1133.5 585.5 1139 585 1124.5 592C1110 599 1114.5 601.5 1104 599C1093.5 596.5 1090.5 612 1087 590.5C1083.5 569 1083.5 575.5 1083.5 562.5C1083.5 552.1 1083.5 544.589 1083.5 542.133Z" stroke="#DAD9E8"/>
</svg>
